<?xml version="1.0" encoding="UTF-8" ?>
<!DOCTYPE svg PUBLIC "-//W3C//DTD SVG 1.1//EN" "http://www.w3.org/Graphics/SVG/1.1/DTD/svg11.dtd">
<svg width="1000pt" height="1000pt" viewBox="0 0 1000 1000" version="1.1" xmlns="http://www.w3.org/2000/svg">
<path fill="#ffffff" opacity="1.00" d=" M 493.45 0.00 L 504.54 0.00 C 510.03 0.37 515.52 0.67 521.00 1.15 C 527.64 1.67 534.35 1.06 540.92 2.35 C 552.34 2.97 563.71 4.33 575.03 6.04 C 588.37 8.69 601.95 10.29 615.07 14.00 C 699.65 33.72 778.46 76.66 841.79 136.01 C 854.06 148.13 866.54 160.10 877.56 173.39 C 937.04 241.90 977.52 326.84 992.39 416.37 C 995.81 433.77 997.29 451.46 998.48 469.10 C 998.29 478.26 999.36 487.36 1000.00 496.48 L 1000.00 505.53 C 999.72 509.64 999.55 513.78 998.83 517.85 C 997.71 525.85 999.44 534.04 997.72 542.02 C 996.72 563.66 992.64 585.00 988.64 606.26 C 987.86 610.47 986.27 614.54 986.24 618.87 C 986.07 618.21 985.91 617.56 985.76 616.92 C 983.96 628.16 980.23 638.96 977.13 649.88 C 958.89 708.42 929.79 763.57 891.64 811.61 C 855.52 857.44 811.17 896.68 761.57 927.39 C 759.71 928.49 757.94 929.74 756.35 931.20 C 784.71 879.32 813.38 827.60 841.87 775.80 C 842.31 774.81 843.04 773.73 842.43 772.65 C 839.37 770.24 835.58 769.07 832.14 767.37 C 827.77 761.99 820.81 760.22 815.04 756.86 C 809.74 753.76 804.21 751.09 798.85 748.10 C 783.24 738.25 765.84 731.84 748.76 725.08 C 738.28 720.12 727.37 716.09 716.37 712.47 C 714.59 711.55 713.43 713.63 712.10 714.42 C 703.64 710.69 695.17 706.98 686.73 703.20 C 682.27 700.90 677.09 700.70 672.65 698.34 C 669.82 697.45 666.68 694.81 663.80 696.83 C 651.02 703.80 638.25 710.77 625.43 717.67 C 626.94 713.84 631.49 712.75 634.57 710.51 C 638.98 708.25 641.97 704.21 644.15 699.87 C 647.37 697.73 650.63 695.65 653.93 693.62 C 653.48 691.74 654.43 688.73 652.09 687.98 C 636.96 681.06 621.56 674.73 606.53 667.59 C 605.08 661.15 604.72 654.56 605.46 648.00 C 605.82 631.14 607.66 614.37 609.71 597.65 C 612.76 585.43 610.19 572.19 615.57 560.50 C 617.81 557.47 621.48 555.86 623.86 552.92 C 628.75 548.37 630.21 541.63 632.27 535.54 C 633.97 528.54 637.21 522.05 638.97 515.07 C 640.87 507.20 643.47 499.52 645.95 491.83 C 651.65 491.95 657.27 493.84 662.98 493.10 C 669.41 491.82 673.69 486.30 677.67 481.56 C 687.47 467.99 696.78 454.07 706.51 440.46 C 707.59 438.80 709.00 437.10 708.83 434.99 C 708.86 426.82 706.82 418.83 706.35 410.70 C 706.03 408.02 706.15 405.00 704.23 402.87 C 701.18 399.17 697.96 395.63 694.83 392.01 C 703.36 385.54 710.30 377.39 717.63 369.65 C 720.92 366.12 725.79 363.45 727.13 358.54 C 727.90 348.11 727.15 337.63 727.29 327.20 C 729.15 318.67 734.34 311.31 736.93 303.01 C 737.22 300.85 735.97 298.83 735.43 296.79 C 720.78 252.78 706.12 208.78 691.41 164.80 C 690.25 161.78 689.87 158.01 686.88 156.16 C 658.42 135.63 630.07 114.93 601.54 94.49 C 592.69 87.85 582.37 83.72 572.60 78.67 C 578.79 75.54 584.70 71.84 590.39 67.87 C 585.22 68.51 580.27 70.21 575.21 71.35 C 571.17 72.45 566.84 72.92 563.23 75.21 C 559.76 77.00 556.66 79.66 552.89 80.78 C 546.01 81.43 539.06 80.91 532.19 80.44 C 521.09 78.82 509.82 79.07 498.74 77.35 C 497.06 69.60 498.58 61.58 497.82 53.72 C 493.10 58.87 491.18 65.92 487.74 71.93 C 488.70 73.15 489.65 74.39 490.61 75.62 C 485.99 73.24 482.33 69.49 478.54 66.03 C 467.70 66.00 456.85 65.93 446.01 66.07 C 457.31 70.71 469.02 74.26 480.39 78.70 C 477.78 80.14 475.12 81.55 472.22 82.28 C 455.97 86.84 439.42 90.23 422.96 93.86 C 411.28 95.21 399.47 94.99 387.76 95.99 C 393.47 98.22 398.88 101.47 405.09 102.10 C 398.47 106.49 391.46 110.29 384.99 114.91 C 368.77 126.08 352.55 137.25 336.24 148.28 C 332.74 150.73 328.84 152.84 326.19 156.27 C 324.07 159.84 323.15 163.96 321.86 167.87 C 315.35 188.42 309.10 209.05 302.46 229.55 C 300.67 235.05 299.49 241.04 295.67 245.58 C 291.99 249.91 287.69 253.78 284.68 258.64 C 284.18 261.72 285.66 264.73 286.13 267.75 C 287.66 276.74 290.12 285.53 291.84 294.48 C 292.61 298.77 294.58 303.18 293.44 307.57 C 290.73 314.05 287.10 320.11 284.11 326.46 C 291.25 324.40 298.63 323.28 305.69 320.92 C 315.55 318.89 321.54 310.09 329.18 304.35 C 329.51 305.48 329.84 306.63 330.17 307.77 C 326.69 309.61 324.03 313.96 326.16 317.76 C 326.88 319.65 329.05 319.78 330.72 320.27 C 330.75 320.71 330.81 321.59 330.85 322.04 C 321.68 323.52 312.56 325.42 303.81 328.57 C 300.01 329.90 297.19 333.88 297.40 337.94 C 297.21 351.22 299.93 364.33 303.17 377.14 C 305.81 388.33 310.73 398.84 316.39 408.80 C 321.30 417.47 329.71 423.84 339.17 426.82 C 342.49 449.64 345.41 472.52 348.54 495.37 C 350.53 506.57 352.74 517.74 355.34 528.82 C 358.35 541.24 364.20 552.67 369.92 564.01 C 376.37 575.99 385.54 586.09 394.68 596.04 C 403.32 606.04 414.37 613.42 425.36 620.56 C 421.19 632.87 418.62 645.64 415.29 658.18 C 414.14 662.23 413.83 666.72 411.24 670.18 C 409.66 672.28 408.14 674.43 406.88 676.74 C 408.61 678.15 410.36 679.56 412.30 680.71 C 421.10 685.82 429.34 691.84 438.29 696.69 C 440.92 698.05 443.28 699.86 445.51 701.81 C 429.66 693.94 413.56 686.57 397.96 678.23 C 401.14 670.92 404.78 663.80 409.21 657.17 C 410.84 655.33 408.50 653.35 407.83 651.64 C 388.91 658.00 370.13 664.79 351.31 671.41 C 350.45 679.13 348.60 686.79 348.81 694.59 C 359.59 699.60 370.12 705.15 380.96 710.04 C 395.49 717.20 409.94 724.54 424.65 731.35 C 445.29 741.87 466.37 751.49 487.02 761.99 C 493.72 765.55 501.02 767.93 507.38 772.12 C 488.61 764.97 470.59 756.02 452.39 747.54 C 420.04 732.24 387.64 717.04 355.31 701.69 C 350.07 698.62 343.77 700.49 338.03 700.00 C 337.87 693.62 339.03 687.32 339.33 680.97 C 323.54 687.61 307.77 694.30 292.01 700.98 C 288.12 702.52 283.94 703.00 279.88 703.91 C 260.65 707.94 241.37 711.71 222.18 715.90 C 224.82 723.13 229.81 729.20 232.74 736.30 C 244.42 765.54 256.13 794.76 267.81 824.01 C 263.97 833.68 260.04 843.32 256.25 853.01 C 277.85 891.72 299.97 930.14 321.46 968.91 C 313.95 966.83 306.98 963.32 299.79 960.40 C 208.97 921.17 130.39 854.20 77.22 770.76 C 49.30 727.37 28.36 679.56 15.05 629.73 C 11.78 615.81 7.74 602.00 6.28 587.73 C 6.01 588.79 5.75 589.87 5.50 590.95 C 5.84 586.60 5.57 582.16 4.01 578.05 C 2.65 564.90 0.91 551.76 0.00 538.56 L 0.00 463.44 C 0.79 457.98 0.61 452.44 1.50 447.00 C 2.80 429.99 6.42 413.30 9.36 396.53 C 11.60 386.42 14.38 376.44 16.57 366.32 C 19.96 355.82 22.69 345.11 26.71 334.81 C 48.05 273.46 81.92 216.58 125.08 168.06 C 134.61 156.93 145.31 146.88 155.66 136.54 C 219.13 76.84 298.25 33.70 383.18 13.94 C 396.21 10.25 409.71 8.68 422.97 6.04 C 434.30 4.34 445.67 2.94 457.09 2.36 C 463.65 1.05 470.36 1.68 476.99 1.15 C 482.47 0.67 487.96 0.37 493.45 0.00 Z" />
<path fill="#211f1e" opacity="1.00" d=" M 487.74 71.93 C 491.18 65.92 493.10 58.87 497.82 53.72 C 498.58 61.58 497.06 69.60 498.74 77.35 C 509.82 79.07 521.09 78.82 532.19 80.44 C 539.06 80.91 546.01 81.43 552.89 80.78 C 556.66 79.66 559.76 77.00 563.23 75.21 C 566.84 72.92 571.17 72.45 575.21 71.35 C 580.27 70.21 585.22 68.51 590.39 67.87 C 584.70 71.84 578.79 75.54 572.60 78.67 C 582.37 83.72 592.69 87.85 601.54 94.49 C 630.07 114.93 658.42 135.63 686.88 156.16 C 689.87 158.01 690.25 161.78 691.41 164.80 C 706.12 208.78 720.78 252.78 735.43 296.79 C 735.97 298.83 737.22 300.85 736.93 303.01 C 734.34 311.31 729.15 318.67 727.29 327.20 C 727.15 337.63 727.90 348.11 727.13 358.54 C 725.79 363.45 720.92 366.12 717.63 369.65 C 710.30 377.39 703.36 385.54 694.83 392.01 C 690.96 395.39 687.51 399.21 683.84 402.80 C 681.39 405.42 677.55 405.18 674.30 405.70 C 668.82 405.71 663.38 406.45 657.93 406.81 C 656.62 397.56 656.22 388.22 655.55 378.91 C 655.08 372.56 653.98 366.28 653.63 359.92 C 653.54 357.49 652.91 355.14 651.92 352.94 C 643.47 350.70 635.29 347.61 626.91 345.18 C 625.27 344.75 623.61 344.36 621.98 343.96 C 620.05 351.22 618.66 358.61 616.93 365.92 C 612.85 381.31 608.08 397.48 596.54 409.08 C 588.98 416.92 578.76 421.90 568.11 423.87 C 551.96 427.24 535.31 427.73 518.91 426.31 C 508.45 425.23 497.90 421.97 489.60 415.34 C 483.66 410.32 478.50 404.32 474.75 397.49 C 470.61 389.57 468.24 380.90 465.88 372.32 C 464.01 365.83 463.67 358.77 460.14 352.85 C 457.46 348.85 451.72 348.04 447.75 350.53 C 443.72 352.72 442.31 357.39 441.12 361.50 C 438.14 372.23 436.46 383.33 432.58 393.81 C 428.70 402.68 425.18 412.23 417.77 418.86 C 411.83 424.93 403.26 427.17 395.23 428.95 C 386.23 430.33 377.14 432.04 368.01 431.17 C 358.33 430.30 348.46 429.92 339.17 426.82 C 329.71 423.84 321.30 417.47 316.39 408.80 C 310.73 398.84 305.81 388.33 303.17 377.14 C 299.93 364.33 297.21 351.22 297.40 337.94 C 297.19 333.88 300.01 329.90 303.81 328.57 C 312.56 325.42 321.68 323.52 330.85 322.04 C 338.89 320.85 346.92 319.62 355.03 318.97 C 362.29 317.97 369.63 318.71 376.90 318.05 C 375.44 317.15 373.85 316.42 372.11 316.37 C 366.76 315.95 361.39 314.90 356.01 315.60 C 347.45 316.39 339.10 318.46 330.72 320.27 C 329.05 319.78 326.88 319.65 326.16 317.76 C 324.03 313.96 326.69 309.61 330.17 307.77 C 339.71 301.23 350.61 296.48 362.06 294.60 C 370.02 294.28 378.16 293.83 385.96 295.86 C 396.71 298.45 407.34 302.90 415.72 310.26 C 419.44 313.90 423.70 319.51 420.72 324.83 C 428.35 327.43 432.97 334.67 440.31 337.68 C 443.91 338.29 447.49 336.98 451.07 336.68 C 453.93 336.23 456.79 337.01 459.66 336.96 C 463.99 336.21 466.49 332.24 469.45 329.40 C 474.57 324.07 481.53 321.24 487.99 317.92 C 486.29 315.31 483.30 312.47 484.91 309.08 C 487.08 301.47 493.89 296.32 501.08 293.78 C 512.47 289.72 524.65 288.59 536.66 288.05 C 552.62 287.41 568.10 292.47 582.75 298.28 C 588.72 301.44 595.71 303.70 599.93 309.28 C 601.77 311.61 600.40 314.39 598.39 316.05 C 603.14 316.26 607.70 317.70 612.31 318.74 C 615.68 319.54 619.14 320.30 622.16 322.07 C 624.57 323.82 624.94 326.98 625.54 329.68 C 633.72 334.71 642.74 338.28 651.56 342.05 C 650.90 333.66 650.07 325.29 649.41 316.90 C 649.04 312.70 646.48 309.18 644.52 305.59 C 637.50 293.94 630.24 282.44 623.23 270.78 C 620.27 266.23 617.51 261.23 612.83 258.20 C 609.73 256.09 606.54 254.11 603.38 252.10 C 605.44 256.96 608.10 261.62 609.10 266.86 C 594.06 266.11 579.09 263.80 564.38 260.63 C 557.51 257.24 550.60 253.92 543.84 250.32 C 536.12 246.35 527.49 242.95 522.15 235.76 C 517.38 229.62 512.46 223.54 506.79 218.22 C 507.22 221.45 507.36 224.74 508.22 227.90 C 509.55 230.68 511.79 232.89 513.51 235.43 C 514.05 238.13 514.85 240.85 514.72 243.64 C 511.62 247.46 506.52 246.63 502.37 245.48 C 497.49 240.41 491.22 236.32 488.26 229.71 C 486.04 224.92 483.85 220.13 481.57 215.38 C 479.32 210.85 478.59 205.81 477.23 200.99 C 467.47 206.53 457.99 212.54 448.31 218.20 C 446.02 219.67 443.31 218.41 440.96 217.83 C 436.78 216.48 432.41 215.78 428.26 214.37 C 423.43 212.82 419.47 209.53 414.94 207.36 C 412.27 210.06 407.95 212.24 407.88 216.51 C 407.59 223.01 406.38 229.46 406.56 235.98 C 406.47 237.99 407.65 239.70 408.58 241.38 C 411.58 246.33 414.72 251.19 418.05 255.92 C 420.37 259.29 422.85 262.67 423.97 266.66 C 420.91 265.76 418.11 264.20 415.39 262.56 C 407.47 258.27 399.70 253.69 392.01 249.00 C 387.26 246.57 385.99 241.01 383.20 236.89 C 380.42 239.19 376.88 241.36 375.79 244.98 C 375.02 253.67 375.74 262.42 375.49 271.13 C 372.04 269.60 369.64 266.60 366.99 264.04 C 362.99 259.89 358.90 255.80 355.40 251.21 C 349.92 258.70 345.65 266.97 341.24 275.11 C 338.11 282.94 336.84 291.38 334.17 299.37 C 332.96 301.41 330.87 302.72 329.18 304.35 C 321.54 310.09 315.55 318.89 305.69 320.92 C 298.63 323.28 291.25 324.40 284.11 326.46 C 287.10 320.11 290.73 314.05 293.44 307.57 C 294.58 303.18 292.61 298.77 291.84 294.48 C 290.12 285.53 287.66 276.74 286.13 267.75 C 285.66 264.73 284.18 261.72 284.68 258.64 C 287.69 253.78 291.99 249.91 295.67 245.58 C 299.49 241.04 300.67 235.05 302.46 229.55 C 309.10 209.05 315.35 188.42 321.86 167.87 C 323.15 163.96 324.07 159.84 326.19 156.27 C 328.84 152.84 332.74 150.73 336.24 148.28 C 352.55 137.25 368.77 126.08 384.99 114.91 C 391.46 110.29 398.47 106.49 405.09 102.10 C 398.88 101.47 393.47 98.22 387.76 95.99 C 399.47 94.99 411.28 95.21 422.96 93.86 C 439.42 90.23 455.97 86.84 472.22 82.28 C 475.12 81.55 477.78 80.14 480.39 78.70 C 469.02 74.26 457.31 70.71 446.01 66.07 C 456.85 65.93 467.70 66.00 478.54 66.03 C 482.33 69.49 485.99 73.24 490.61 75.62 C 489.65 74.39 488.70 73.15 487.74 71.93 M 543.08 311.21 C 552.06 311.49 561.05 311.30 570.03 311.61 C 576.98 312.51 583.90 313.65 590.88 314.43 C 585.59 313.19 580.24 312.27 574.95 311.04 C 564.47 308.68 553.60 309.61 543.08 311.21 M 519.47 319.73 C 515.88 320.29 512.36 321.25 508.75 321.71 C 498.91 322.82 489.70 327.10 481.57 332.60 C 475.03 337.00 473.84 345.71 474.35 352.99 C 473.93 360.93 475.97 368.64 477.67 376.32 C 479.74 385.54 483.22 394.54 488.43 402.45 C 496.44 414.38 511.19 419.71 525.04 420.31 C 539.07 420.70 553.31 420.16 566.93 416.52 C 579.21 413.49 589.55 404.74 595.88 393.96 C 601.58 383.17 604.19 371.05 605.64 359.02 C 605.46 352.04 607.13 345.02 605.70 338.09 C 605.19 335.43 604.73 332.31 602.24 330.74 C 596.17 326.47 588.85 324.69 581.78 322.86 C 569.98 320.64 558.08 318.10 546.00 318.49 C 537.15 318.69 528.23 318.15 519.47 319.73 M 332.40 330.30 C 326.94 332.84 320.74 334.10 316.04 338.08 C 313.41 340.39 310.77 343.23 310.54 346.93 C 309.06 359.86 312.76 372.63 316.15 384.98 C 320.69 397.19 325.28 411.35 337.52 417.93 L 337.51 418.14 C 342.88 421.06 349.02 422.38 355.05 423.16 C 364.91 424.96 375.03 424.84 384.98 423.99 C 393.58 422.28 402.87 420.70 409.60 414.60 C 417.79 407.20 421.92 396.55 425.16 386.27 C 426.86 377.57 429.79 368.97 429.40 360.00 C 429.23 354.98 429.81 349.87 428.67 344.92 C 428.10 341.56 425.56 339.07 423.57 336.46 C 418.12 330.28 409.76 328.33 402.00 326.87 C 395.03 325.91 388.03 324.64 380.97 324.85 C 374.72 325.77 368.40 324.99 362.12 325.52 C 352.15 326.63 342.07 327.43 332.40 330.30 Z" />
<path fill="#f9c9ad" opacity="1.00" d=" M 448.31 218.20 C 457.99 212.54 467.47 206.53 477.23 200.99 C 478.59 205.81 479.32 210.85 481.57 215.38 C 483.85 220.13 486.04 224.92 488.26 229.71 C 491.22 236.32 497.49 240.41 502.37 245.48 C 504.07 247.16 506.03 248.58 508.18 249.63 C 515.81 253.43 523.51 257.17 531.62 259.83 C 525.89 251.47 519.57 243.54 513.51 235.43 C 511.79 232.89 509.55 230.68 508.22 227.90 C 507.36 224.74 507.22 221.45 506.79 218.22 C 512.46 223.54 517.38 229.62 522.15 235.76 C 527.49 242.95 536.12 246.35 543.84 250.32 C 550.60 253.92 557.51 257.24 564.38 260.63 C 558.27 269.20 552.80 278.21 546.70 286.78 C 543.32 286.91 539.97 287.42 536.66 288.05 C 524.65 288.59 512.47 289.72 501.08 293.78 C 493.89 296.32 487.08 301.47 484.91 309.08 C 483.30 312.47 486.29 315.31 487.99 317.92 C 481.53 321.24 474.57 324.07 469.45 329.40 C 466.49 332.24 463.99 336.21 459.66 336.96 C 456.79 337.01 453.93 336.23 451.07 336.68 C 447.49 336.98 443.91 338.29 440.31 337.68 C 432.97 334.67 428.35 327.43 420.72 324.83 C 423.70 319.51 419.44 313.90 415.72 310.26 C 407.34 302.90 396.71 298.45 385.96 295.86 C 378.16 293.83 370.02 294.28 362.06 294.60 C 350.61 296.48 339.71 301.23 330.17 307.77 C 329.84 306.63 329.51 305.48 329.18 304.35 C 330.87 302.72 332.96 301.41 334.17 299.37 C 336.84 291.38 338.11 282.94 341.24 275.11 C 345.65 266.97 349.92 258.70 355.40 251.21 C 358.90 255.80 362.99 259.89 366.99 264.04 C 369.64 266.60 372.04 269.60 375.49 271.13 C 375.74 262.42 375.02 253.67 375.79 244.98 C 376.88 241.36 380.42 239.19 383.20 236.89 C 385.99 241.01 387.26 246.57 392.01 249.00 C 399.70 253.69 407.47 258.27 415.39 262.56 C 418.11 264.20 420.91 265.76 423.97 266.66 C 422.85 262.67 420.37 259.29 418.05 255.92 C 414.72 251.19 411.58 246.33 408.58 241.38 C 407.65 239.70 406.47 237.99 406.56 235.98 C 406.38 229.46 407.59 223.01 407.88 216.51 C 407.95 212.24 412.27 210.06 414.94 207.36 C 419.47 209.53 423.43 212.82 428.26 214.37 C 432.41 215.78 436.78 216.48 440.96 217.83 C 443.31 218.41 446.02 219.67 448.31 218.20 Z" />
<path fill="#2a2827" opacity="1.00" d=" M 513.51 235.43 C 519.57 243.54 525.89 251.47 531.62 259.83 C 523.51 257.17 515.81 253.43 508.18 249.63 C 506.03 248.58 504.07 247.16 502.37 245.48 C 506.52 246.63 511.62 247.46 514.72 243.64 C 514.85 240.85 514.05 238.13 513.51 235.43 Z" />
<path fill="#f2b99c" opacity="1.00" d=" M 603.38 252.10 C 606.54 254.11 609.73 256.09 612.83 258.20 C 617.51 261.23 620.27 266.23 623.23 270.78 C 630.24 282.44 637.50 293.94 644.52 305.59 C 646.48 309.18 649.04 312.70 649.41 316.90 C 650.07 325.29 650.90 333.66 651.56 342.05 C 642.74 338.28 633.72 334.71 625.54 329.68 C 624.94 326.98 624.57 323.82 622.16 322.07 C 619.14 320.30 615.68 319.54 612.31 318.74 C 607.70 317.70 603.14 316.26 598.39 316.05 C 600.40 314.39 601.77 311.61 599.93 309.28 C 595.71 303.70 588.72 301.44 582.75 298.28 C 568.10 292.47 552.62 287.41 536.66 288.05 C 539.97 287.42 543.32 286.91 546.70 286.78 C 552.80 278.21 558.27 269.20 564.38 260.63 C 579.09 263.80 594.06 266.11 609.10 266.86 C 608.10 261.62 605.44 256.96 603.38 252.10 Z" />
<path fill="#dba68f" opacity="1.00" d=" M 543.08 311.21 C 553.60 309.61 564.47 308.68 574.95 311.04 C 580.24 312.27 585.59 313.19 590.88 314.43 C 583.90 313.65 576.98 312.51 570.03 311.61 C 561.05 311.30 552.06 311.49 543.08 311.21 Z" />
<path fill="#f1c2a7" opacity="1.00" d=" M 330.72 320.27 C 339.10 318.46 347.45 316.39 356.01 315.60 C 361.39 314.90 366.76 315.95 372.11 316.37 C 373.85 316.42 375.44 317.15 376.90 318.05 C 369.63 318.71 362.29 317.97 355.03 318.97 C 346.92 319.62 338.89 320.85 330.85 322.04 C 330.81 321.59 330.75 320.71 330.72 320.27 Z" />
<path fill="#f9c9ad" opacity="1.00" d=" M 519.47 319.73 C 528.23 318.15 537.15 318.69 546.00 318.49 C 558.08 318.10 569.98 320.64 581.78 322.86 C 588.85 324.69 596.17 326.47 602.24 330.74 C 604.73 332.31 605.19 335.43 605.70 338.09 C 607.13 345.02 605.46 352.04 605.64 359.02 C 604.19 371.05 601.58 383.17 595.88 393.96 C 589.55 404.74 579.21 413.49 566.93 416.52 C 553.31 420.16 539.07 420.70 525.04 420.31 C 511.19 419.71 496.44 414.38 488.43 402.45 C 483.22 394.54 479.74 385.54 477.67 376.32 C 475.97 368.64 473.93 360.93 474.35 352.99 C 473.84 345.71 475.03 337.00 481.57 332.60 C 489.70 327.10 498.91 322.82 508.75 321.71 C 512.36 321.25 515.88 320.29 519.47 319.73 M 527.05 322.93 C 523.60 323.96 519.65 325.36 518.14 328.94 C 520.67 329.79 523.32 330.19 525.99 330.13 C 535.00 330.10 544.01 330.08 553.02 330.30 C 555.00 330.09 558.40 330.86 558.53 327.96 C 556.22 325.29 552.60 324.46 549.35 323.55 C 542.07 321.95 534.38 321.23 527.05 322.93 M 528.04 335.44 C 518.12 337.82 509.43 345.17 505.70 354.71 C 504.52 357.74 502.45 360.84 502.88 364.19 C 504.36 364.99 505.83 363.72 507.25 363.36 C 507.69 366.83 507.88 370.78 510.71 373.29 C 515.93 378.50 523.56 382.65 531.11 381.22 L 531.76 381.40 C 534.63 382.70 537.87 382.03 540.92 382.43 C 550.05 383.74 560.64 381.01 566.15 373.13 C 567.64 371.06 569.31 368.41 568.47 365.78 C 570.24 365.50 572.89 365.81 573.64 363.70 C 574.15 360.54 572.43 357.57 571.20 354.78 C 568.27 349.64 564.42 344.81 559.23 341.81 C 550.10 336.05 538.75 332.54 528.04 335.44 Z" />
<path fill="#bd857c" opacity="1.00" d=" M 527.05 322.93 C 534.38 321.23 542.07 321.95 549.35 323.55 C 552.60 324.46 556.22 325.29 558.53 327.96 C 558.40 330.86 555.00 330.09 553.02 330.30 C 544.01 330.08 535.00 330.10 525.99 330.13 C 523.32 330.19 520.67 329.79 518.14 328.94 C 519.65 325.36 523.60 323.96 527.05 322.93 Z" />
<path fill="#f9c9ad" opacity="1.00" d=" M 332.40 330.30 C 342.07 327.43 352.15 326.63 362.12 325.52 C 368.40 324.99 374.72 325.77 380.97 324.85 C 388.03 324.64 395.03 325.91 402.00 326.87 C 409.76 328.33 418.12 330.28 423.57 336.46 C 425.56 339.07 428.10 341.56 428.67 344.92 C 429.81 349.87 429.23 354.98 429.40 360.00 C 429.79 368.97 426.86 377.57 425.16 386.27 C 421.92 396.55 417.79 407.20 409.60 414.60 C 402.87 420.70 393.58 422.28 384.98 423.99 C 375.03 424.84 364.91 424.96 355.05 423.16 C 349.02 422.38 342.88 421.06 337.51 418.14 L 337.52 417.93 C 337.70 414.93 337.62 411.92 337.35 408.93 C 335.76 386.92 334.18 364.90 332.63 342.89 C 332.18 338.71 331.70 334.48 332.40 330.30 M 374.45 330.59 C 370.12 331.21 365.91 332.88 362.57 335.75 C 362.17 336.70 362.11 338.13 363.33 338.53 C 368.85 339.49 374.45 338.25 380.01 338.24 C 385.46 337.97 391.11 338.09 396.33 336.32 C 398.30 334.85 395.83 333.14 394.34 332.69 C 387.97 330.65 381.12 329.61 374.45 330.59 M 358.47 352.57 C 354.50 357.59 351.81 363.67 351.33 370.08 C 350.88 372.90 354.25 373.35 356.22 373.94 C 354.18 383.78 367.72 390.59 375.52 385.78 C 380.51 386.19 385.53 384.90 389.61 381.97 C 389.75 382.40 390.05 383.27 390.19 383.71 C 397.22 383.18 405.12 377.45 404.58 369.77 C 405.14 369.34 405.71 368.92 406.29 368.52 C 406.80 356.62 398.46 345.28 387.01 342.14 C 376.55 338.17 364.65 343.85 358.47 352.57 Z" />
<path fill="#ffffff" opacity="1.00" d=" M 316.04 338.08 C 320.74 334.10 326.94 332.84 332.40 330.30 C 331.70 334.48 332.18 338.71 332.63 342.89 C 334.18 364.90 335.76 386.92 337.35 408.93 C 337.62 411.92 337.70 414.93 337.52 417.93 C 325.28 411.35 320.69 397.19 316.15 384.98 C 312.76 372.63 309.06 359.86 310.54 346.93 C 310.77 343.23 313.41 340.39 316.04 338.08 Z" />
<path fill="#bc847c" opacity="1.00" d=" M 374.45 330.59 C 381.12 329.61 387.97 330.65 394.34 332.69 C 395.83 333.14 398.30 334.85 396.33 336.32 C 391.11 338.09 385.46 337.97 380.01 338.24 C 374.45 338.25 368.85 339.49 363.33 338.53 C 362.11 338.13 362.17 336.70 362.57 335.75 C 365.91 332.88 370.12 331.21 374.45 330.59 Z" />
<path fill="#211f1e" opacity="1.00" d=" M 528.04 335.44 C 538.75 332.54 550.10 336.05 559.23 341.81 C 564.42 344.81 568.27 349.64 571.20 354.78 C 572.43 357.57 574.15 360.54 573.64 363.70 C 572.89 365.81 570.24 365.50 568.47 365.78 C 564.56 359.02 560.31 351.30 552.25 348.96 C 553.72 352.84 555.43 356.77 555.42 361.01 C 555.92 367.92 551.89 374.38 546.61 378.52 C 542.41 381.76 536.80 381.79 531.76 381.40 L 531.11 381.22 C 524.68 379.39 518.63 373.97 518.27 366.94 C 521.11 365.26 523.88 363.47 526.58 361.57 C 526.72 358.86 526.69 356.14 526.48 353.43 C 523.57 353.19 520.66 353.21 517.76 353.39 C 517.02 352.75 516.28 352.12 515.55 351.48 C 512.23 355.02 509.51 359.07 507.25 363.36 C 505.83 363.72 504.36 364.99 502.88 364.19 C 502.45 360.84 504.52 357.74 505.70 354.71 C 509.43 345.17 518.12 337.82 528.04 335.44 Z" />
<path fill="#211f1e" opacity="1.00" d=" M 358.47 352.57 C 364.65 343.85 376.55 338.17 387.01 342.14 C 398.46 345.28 406.80 356.62 406.29 368.52 C 405.71 368.92 405.14 369.34 404.58 369.77 C 403.36 365.34 401.16 361.00 397.35 358.27 C 395.86 357.11 394.02 356.65 392.22 356.23 C 392.97 358.93 393.98 361.54 394.93 364.18 C 396.14 370.51 394.54 377.56 389.61 381.97 C 385.53 384.90 380.51 386.19 375.52 385.78 C 370.97 384.22 366.26 380.95 365.25 375.97 C 365.46 373.04 368.90 372.44 370.62 370.55 C 373.12 368.66 374.00 363.79 370.59 362.39 C 367.09 360.16 362.61 362.22 360.34 365.23 C 358.63 367.96 357.45 370.97 356.22 373.94 C 354.25 373.35 350.88 372.90 351.33 370.08 C 351.81 363.67 354.50 357.59 358.47 352.57 Z" />
<path fill="#dba68f" opacity="1.00" d=" M 621.98 343.96 C 623.61 344.36 625.27 344.75 626.91 345.18 C 625.63 346.21 624.26 347.27 623.92 348.97 C 621.91 355.37 620.44 361.99 617.36 368.00 C 617.25 367.48 617.04 366.44 616.93 365.92 C 618.66 358.61 620.05 351.22 621.98 343.96 Z" />
<path fill="#f2b99c" opacity="1.00" d=" M 623.92 348.97 C 624.26 347.27 625.63 346.21 626.91 345.18 C 635.29 347.61 643.47 350.70 651.92 352.94 C 652.86 363.33 654.60 373.65 654.96 384.09 C 655.85 391.92 655.93 399.84 657.21 407.62 C 662.94 407.29 668.66 406.79 674.30 405.70 C 677.55 405.18 681.39 405.42 683.84 402.80 C 687.51 399.21 690.96 395.39 694.83 392.01 C 697.96 395.63 701.18 399.17 704.23 402.87 C 706.15 405.00 706.03 408.02 706.35 410.70 C 706.82 418.83 708.86 426.82 708.83 434.99 C 709.00 437.10 707.59 438.80 706.51 440.46 C 696.78 454.07 687.47 467.99 677.67 481.56 C 673.69 486.30 669.41 491.82 662.98 493.10 C 657.27 493.84 651.65 491.95 645.95 491.83 C 643.47 499.52 640.87 507.20 638.97 515.07 C 637.21 522.05 633.97 528.54 632.27 535.54 C 630.21 541.63 628.75 548.37 623.86 552.92 C 621.48 555.86 617.81 557.47 615.57 560.50 C 610.19 572.19 612.76 585.43 609.71 597.65 C 607.66 614.37 605.82 631.14 605.46 648.00 C 604.72 654.56 605.08 661.15 606.53 667.59 C 605.94 668.86 605.56 670.24 605.82 671.67 C 606.53 678.37 608.08 684.94 609.53 691.51 C 603.58 695.39 597.24 698.60 591.03 702.03 C 573.47 711.49 556.00 721.13 538.39 730.49 C 532.60 733.24 526.79 736.98 520.08 736.07 C 516.02 724.02 512.09 711.93 507.95 699.90 C 499.12 676.06 492.43 651.43 482.85 627.87 C 499.03 625.48 514.53 619.57 529.05 612.16 C 531.04 611.15 533.12 610.22 534.79 608.70 C 535.51 606.39 534.87 603.92 534.65 601.58 C 533.55 594.75 533.02 587.85 531.98 581.01 C 531.65 577.66 528.88 575.46 527.05 572.89 C 526.47 572.11 525.92 571.33 525.35 570.57 C 528.77 568.17 530.00 564.08 531.58 560.43 C 547.69 526.21 563.73 491.95 579.74 457.69 C 584.39 448.77 587.79 439.28 592.41 430.36 C 595.21 424.64 598.46 419.10 600.35 412.99 C 599.07 411.69 597.80 410.37 596.54 409.08 C 608.08 397.48 612.85 381.31 616.93 365.92 C 617.04 366.44 617.25 367.48 617.36 368.00 C 620.44 361.99 621.91 355.37 623.92 348.97 Z" />
<path fill="#f9c9ad" opacity="1.00" d=" M 447.75 350.53 C 451.72 348.04 457.46 348.85 460.14 352.85 C 463.67 358.77 464.01 365.83 465.88 372.32 C 468.24 380.90 470.61 389.57 474.75 397.49 C 478.50 404.32 483.66 410.32 489.60 415.34 C 497.90 421.97 508.45 425.23 518.91 426.31 C 535.31 427.73 551.96 427.24 568.11 423.87 C 578.76 421.90 588.98 416.92 596.54 409.08 C 597.80 410.37 599.07 411.69 600.35 412.99 C 598.46 419.10 595.21 424.64 592.41 430.36 C 587.79 439.28 584.39 448.77 579.74 457.69 C 563.73 491.95 547.69 526.21 531.58 560.43 C 530.00 564.08 528.77 568.17 525.35 570.57 C 522.40 566.88 519.37 563.26 516.23 559.75 C 514.68 557.58 511.86 558.24 509.61 558.45 C 493.75 560.72 477.84 562.61 461.96 564.77 C 456.78 565.34 451.96 568.64 446.63 567.44 C 438.16 565.81 429.65 564.33 421.19 562.65 C 419.62 562.43 417.98 561.98 416.42 562.39 C 412.90 564.81 410.32 568.32 407.20 571.20 C 404.24 574.26 400.51 576.92 399.08 581.10 C 397.37 586.00 396.12 591.05 394.68 596.04 C 385.54 586.09 376.37 575.99 369.92 564.01 C 364.20 552.67 358.35 541.24 355.34 528.82 C 352.74 517.74 350.53 506.57 348.54 495.37 C 345.41 472.52 342.49 449.64 339.17 426.82 C 348.46 429.92 358.33 430.30 368.01 431.17 C 377.14 432.04 386.23 430.33 395.23 428.95 C 403.26 427.17 411.83 424.93 417.77 418.86 C 425.18 412.23 428.70 402.68 432.58 393.81 C 436.46 383.33 438.14 372.23 441.12 361.50 C 442.31 357.39 443.72 352.72 447.75 350.53 M 440.76 404.54 C 437.29 418.26 434.41 432.13 431.23 445.92 C 430.68 448.28 430.43 450.70 430.62 453.13 C 434.24 453.68 434.29 449.53 434.97 447.10 C 436.29 439.68 438.35 432.40 439.41 424.93 C 440.45 418.23 443.42 411.72 443.29 404.91 C 442.66 404.82 441.39 404.63 440.76 404.54 M 432.66 460.70 C 433.23 461.89 433.84 463.15 434.96 463.93 C 438.70 466.87 442.30 470.00 446.17 472.78 C 447.60 473.67 449.10 475.02 450.94 474.58 C 455.87 472.44 460.16 469.05 465.07 466.85 C 468.92 466.96 472.36 469.06 476.05 470.00 C 477.16 470.55 479.55 470.17 478.62 468.49 C 474.32 466.34 469.76 464.63 465.16 463.26 C 459.72 464.94 455.88 470.33 450.07 470.92 C 444.31 468.64 440.43 463.35 435.00 460.53 C 434.41 460.57 433.24 460.66 432.66 460.70 M 445.64 478.57 C 434.43 481.39 423.22 484.22 411.99 486.97 C 409.50 487.76 406.01 488.30 405.35 491.32 C 403.76 497.30 401.31 503.05 400.19 509.15 C 402.50 509.21 404.76 508.73 406.89 507.84 C 417.22 503.75 427.76 500.22 438.11 496.17 C 440.90 495.11 443.80 493.80 446.87 494.31 C 453.91 495.20 461.07 495.37 468.00 496.98 C 481.32 500.37 494.67 503.65 508.00 507.01 C 511.64 507.89 515.25 509.20 519.06 509.04 C 518.86 504.60 516.91 500.52 515.56 496.36 C 514.74 494.47 514.09 491.78 511.67 491.47 C 492.90 487.50 474.12 483.51 455.35 479.53 C 452.18 478.84 448.90 477.66 445.64 478.57 M 435.26 509.18 C 424.52 515.83 413.39 521.93 401.75 526.85 C 415.53 527.24 429.16 530.37 443.00 530.01 C 451.37 529.86 459.76 530.35 468.11 529.53 C 479.96 528.71 492.12 530.02 503.68 526.65 C 510.61 524.54 517.33 521.78 524.12 519.25 C 525.28 518.98 525.99 518.26 526.25 517.09 C 518.45 517.07 510.76 518.55 503.00 519.02 C 497.76 519.19 492.72 517.53 487.65 516.48 C 481.17 515.10 474.68 513.73 468.42 511.53 C 466.04 510.86 463.62 509.64 461.10 510.09 C 457.90 511.39 455.40 514.10 452.03 514.99 C 447.27 513.57 443.45 509.93 438.84 508.06 C 437.52 507.77 436.35 508.60 435.26 509.18 Z" />
<path fill="#f0e7e4" opacity="1.00" d=" M 552.25 348.96 C 560.31 351.30 564.56 359.02 568.47 365.78 C 569.31 368.41 567.64 371.06 566.15 373.13 C 560.64 381.01 550.05 383.74 540.92 382.43 C 537.87 382.03 534.63 382.70 531.76 381.40 C 536.80 381.79 542.41 381.76 546.61 378.52 C 551.89 374.38 555.92 367.92 555.42 361.01 C 555.43 356.77 553.72 352.84 552.25 348.96 Z" />
<path fill="#f8f3ef" opacity="1.00" d=" M 507.25 363.36 C 509.51 359.07 512.23 355.02 515.55 351.48 C 516.28 352.12 517.02 352.75 517.76 353.39 C 520.66 353.21 523.57 353.19 526.48 353.43 C 526.69 356.14 526.72 358.86 526.58 361.57 C 523.88 363.47 521.11 365.26 518.27 366.94 C 518.63 373.97 524.68 379.39 531.11 381.22 C 523.56 382.65 515.93 378.50 510.71 373.29 C 507.88 370.78 507.69 366.83 507.25 363.36 Z" />
<path fill="#937365" opacity="1.00" d=" M 651.92 352.94 C 652.91 355.14 653.54 357.49 653.63 359.92 C 653.98 366.28 655.08 372.56 655.55 378.91 C 656.22 388.22 656.62 397.56 657.93 406.81 C 663.38 406.45 668.82 405.71 674.30 405.70 C 668.66 406.79 662.94 407.29 657.21 407.62 C 655.93 399.84 655.85 391.92 654.96 384.09 C 654.60 373.65 652.86 363.33 651.92 352.94 Z" />
<path fill="#8b8585" opacity="1.00" d=" M 392.22 356.23 C 394.02 356.65 395.86 357.11 397.35 358.27 C 396.57 358.30 395.00 358.35 394.21 358.38 C 394.44 360.31 394.68 362.24 394.93 364.18 C 393.98 361.54 392.97 358.93 392.22 356.23 Z" />
<path fill="#f3ebe7" opacity="1.00" d=" M 394.21 358.38 C 395.00 358.35 396.57 358.30 397.35 358.27 C 401.16 361.00 403.36 365.34 404.58 369.77 C 405.12 377.45 397.22 383.18 390.19 383.71 C 390.05 383.27 389.75 382.40 389.61 381.97 C 394.54 377.56 396.14 370.51 394.93 364.18 C 394.68 362.24 394.44 360.31 394.21 358.38 Z" />
<path fill="#f6f0ec" opacity="1.00" d=" M 360.34 365.23 C 362.61 362.22 367.09 360.16 370.59 362.39 C 374.00 363.79 373.12 368.66 370.62 370.55 C 368.90 372.44 365.46 373.04 365.25 375.97 C 366.26 380.95 370.97 384.22 375.52 385.78 C 367.72 390.59 354.18 383.78 356.22 373.94 C 357.45 370.97 358.63 367.96 360.34 365.23 Z" />
<path fill="#a87166" opacity="1.00" d=" M 440.76 404.54 C 441.39 404.63 442.66 404.82 443.29 404.91 C 443.42 411.72 440.45 418.23 439.41 424.93 C 438.35 432.40 436.29 439.68 434.97 447.10 C 434.29 449.53 434.24 453.68 430.62 453.13 C 430.43 450.70 430.68 448.28 431.23 445.92 C 434.41 432.13 437.29 418.26 440.76 404.54 Z" />
<path fill="#a46c61" opacity="1.00" d=" M 432.66 460.70 C 433.24 460.66 434.41 460.57 435.00 460.53 C 440.43 463.35 444.31 468.64 450.07 470.92 C 455.88 470.33 459.72 464.94 465.16 463.26 C 469.76 464.63 474.32 466.34 478.62 468.49 C 479.55 470.17 477.16 470.55 476.05 470.00 C 472.36 469.06 468.92 466.96 465.07 466.85 C 460.16 469.05 455.87 472.44 450.94 474.58 C 449.10 475.02 447.60 473.67 446.17 472.78 C 442.30 470.00 438.70 466.87 434.96 463.93 C 433.84 463.15 433.23 461.89 432.66 460.70 Z" />
<path fill="#e3b7a5" opacity="1.00" d=" M 445.64 478.57 C 448.90 477.66 452.18 478.84 455.35 479.53 C 474.12 483.51 492.90 487.50 511.67 491.47 C 514.09 491.78 514.74 494.47 515.56 496.36 C 516.91 500.52 518.86 504.60 519.06 509.04 C 515.25 509.20 511.64 507.89 508.00 507.01 C 494.67 503.65 481.32 500.37 468.00 496.98 C 461.07 495.37 453.91 495.20 446.87 494.31 C 443.80 493.80 440.90 495.11 438.11 496.17 C 427.76 500.22 417.22 503.75 406.89 507.84 C 404.76 508.73 402.50 509.21 400.19 509.15 C 401.31 503.05 403.76 497.30 405.35 491.32 C 406.01 488.30 409.50 487.76 411.99 486.97 C 423.22 484.22 434.43 481.39 445.64 478.57 Z" />
<path fill="#bb827b" opacity="1.00" d=" M 435.26 509.18 C 436.35 508.60 437.52 507.77 438.84 508.06 C 443.45 509.93 447.27 513.57 452.03 514.99 C 455.40 514.10 457.90 511.39 461.10 510.09 C 463.62 509.64 466.04 510.86 468.42 511.53 C 474.68 513.73 481.17 515.10 487.65 516.48 C 492.72 517.53 497.76 519.19 503.00 519.02 C 510.76 518.55 518.45 517.07 526.25 517.09 C 525.99 518.26 525.28 518.98 524.12 519.25 C 517.33 521.78 510.61 524.54 503.68 526.65 C 492.12 530.02 479.96 528.71 468.11 529.53 C 459.76 530.35 451.37 529.86 443.00 530.01 C 429.16 530.37 415.53 527.24 401.75 526.85 C 413.39 521.93 424.52 515.83 435.26 509.18 Z" />
<path fill="#e3b7a5" opacity="1.00" d=" M 509.61 558.45 C 511.86 558.24 514.68 557.58 516.23 559.75 C 519.37 563.26 522.40 566.88 525.35 570.57 C 525.92 571.33 526.47 572.11 527.05 572.89 C 518.42 578.81 509.57 584.48 500.23 589.23 C 482.50 600.12 464.96 611.35 447.21 622.22 C 445.64 623.22 444.50 624.71 443.34 626.14 C 436.99 625.66 431.07 623.21 425.36 620.56 C 414.37 613.42 403.32 606.04 394.68 596.04 C 396.12 591.05 397.37 586.00 399.08 581.10 C 400.51 576.92 404.24 574.26 407.20 571.20 C 410.32 568.32 412.90 564.81 416.42 562.39 C 417.98 561.98 419.62 562.43 421.19 562.65 C 429.65 564.33 438.16 565.81 446.63 567.44 C 451.96 568.64 456.78 565.34 461.96 564.77 C 477.84 562.61 493.75 560.72 509.61 558.45 Z" />
<path fill="#ddaa98" opacity="1.00" d=" M 500.23 589.23 C 509.57 584.48 518.42 578.81 527.05 572.89 C 528.88 575.46 531.65 577.66 531.98 581.01 C 533.02 587.85 533.55 594.75 534.65 601.58 C 534.87 603.92 535.51 606.39 534.79 608.70 C 533.12 610.22 531.04 611.15 529.05 612.16 C 514.53 619.57 499.03 625.48 482.85 627.87 C 469.76 630.77 456.35 628.12 443.34 626.14 C 444.50 624.71 445.64 623.22 447.21 622.22 C 464.96 611.35 482.50 600.12 500.23 589.23 Z" />
<path fill="#f9c9ad" opacity="1.00" d=" M 425.36 620.56 C 431.07 623.21 436.99 625.66 443.34 626.14 C 456.35 628.12 469.76 630.77 482.85 627.87 C 492.43 651.43 499.12 676.06 507.95 699.90 C 512.09 711.93 516.02 724.02 520.08 736.07 C 517.45 736.08 514.78 735.83 512.42 734.61 C 490.03 723.86 467.72 712.92 445.51 701.81 C 443.28 699.86 440.92 698.05 438.29 696.69 C 429.34 691.84 421.10 685.82 412.30 680.71 C 410.36 679.56 408.61 678.15 406.88 676.74 C 408.14 674.43 409.66 672.28 411.24 670.18 C 413.83 666.72 414.14 662.23 415.29 658.18 C 418.62 645.64 421.19 632.87 425.36 620.56 Z" />
<path fill="#211f1e" opacity="1.00" d=" M 351.31 671.41 C 370.13 664.79 388.91 658.00 407.83 651.64 C 408.50 653.35 410.84 655.33 409.21 657.17 C 404.78 663.80 401.14 670.92 397.96 678.23 C 413.56 686.57 429.66 693.94 445.51 701.81 C 467.72 712.92 490.03 723.86 512.42 734.61 C 514.78 735.83 517.45 736.08 520.08 736.07 C 526.79 736.98 532.60 733.24 538.39 730.49 C 556.00 721.13 573.47 711.49 591.03 702.03 C 597.24 698.60 603.58 695.39 609.53 691.51 C 608.08 684.94 606.53 678.37 605.82 671.67 C 605.56 670.24 605.94 668.86 606.53 667.59 C 621.56 674.73 636.96 681.06 652.09 687.98 C 654.43 688.73 653.48 691.74 653.93 693.62 C 650.63 695.65 647.37 697.73 644.15 699.87 C 633.30 706.67 622.56 713.64 611.75 720.50 C 603.17 725.99 594.56 731.42 586.01 736.95 C 596.46 733.79 605.95 728.39 615.45 723.14 C 618.79 721.34 622.16 719.59 625.43 717.67 C 638.25 710.77 651.02 703.80 663.80 696.83 C 666.68 694.81 669.82 697.45 672.65 698.34 C 677.09 700.70 682.27 700.90 686.73 703.20 C 695.17 706.98 703.64 710.69 712.10 714.42 C 752.10 732.11 792.06 749.86 832.14 767.37 C 835.58 769.07 839.37 770.24 842.43 772.65 C 843.04 773.73 842.31 774.81 841.87 775.80 C 813.38 827.60 784.71 879.32 756.35 931.20 C 754.04 933.42 751.24 935.02 748.42 936.49 C 719.76 953.06 689.37 966.59 658.00 977.12 C 650.84 980.04 643.18 981.37 635.91 983.97 C 628.36 986.67 620.35 987.60 612.68 989.88 C 601.02 993.32 588.83 994.26 577.00 996.92 C 569.88 998.44 562.58 998.74 555.42 1000.00 L 442.58 1000.00 C 435.42 998.73 428.11 998.45 420.99 996.92 C 408.66 994.14 395.93 993.21 383.81 989.45 C 375.05 987.23 366.10 985.72 357.61 982.51 C 349.62 980.47 341.79 977.91 334.07 975.02 C 329.80 973.27 324.08 973.24 321.46 968.91 C 299.97 930.14 277.85 891.72 256.25 853.01 C 260.04 843.32 263.97 833.68 267.81 824.01 C 256.13 794.76 244.42 765.54 232.74 736.30 C 229.81 729.20 224.82 723.13 222.18 715.90 C 241.37 711.71 260.65 707.94 279.88 703.91 C 283.94 703.00 288.12 702.52 292.01 700.98 C 307.77 694.30 323.54 687.61 339.33 680.97 C 339.03 687.32 337.87 693.62 338.03 700.00 C 343.77 700.49 350.07 698.62 355.31 701.69 C 387.64 717.04 420.04 732.24 452.39 747.54 C 470.59 756.02 488.61 764.97 507.38 772.12 C 501.02 767.93 493.72 765.55 487.02 761.99 C 466.37 751.49 445.29 741.87 424.65 731.35 C 409.94 724.54 395.49 717.20 380.96 710.04 C 370.12 705.15 359.59 699.60 348.81 694.59 C 348.60 686.79 350.45 679.13 351.31 671.41 Z" />
<path fill="#ebebeb" opacity="1.00" d=" M 611.75 720.50 C 622.56 713.64 633.30 706.67 644.15 699.87 C 641.97 704.21 638.98 708.25 634.57 710.51 C 631.49 712.75 626.94 713.84 625.43 717.67 C 622.16 719.59 618.79 721.34 615.45 723.14 C 614.21 722.25 612.97 721.37 611.75 720.50 Z" />
<path fill="#f2f2f2" opacity="1.00" d=" M 712.10 714.42 C 713.43 713.63 714.59 711.55 716.37 712.47 C 727.37 716.09 738.28 720.12 748.76 725.08 C 765.84 731.84 783.24 738.25 798.85 748.10 C 804.21 751.09 809.74 753.76 815.04 756.86 C 820.81 760.22 827.77 761.99 832.14 767.37 C 792.06 749.86 752.10 732.11 712.10 714.42 Z" />
<path fill="#ffffff" opacity="1.00" d=" M 586.01 736.95 C 594.56 731.42 603.17 725.99 611.75 720.50 C 612.97 721.37 614.21 722.25 615.45 723.14 C 605.95 728.39 596.46 733.79 586.01 736.95 Z" />
</svg>
